<?xml version="1.0" encoding="UTF-8" standalone="no"?>
<svg
   width="335.32874"
   zoomAndPan="magnify"
   viewBox="0 0 251.49655 93.493181"
   height="124.65758"
   preserveAspectRatio="xMidYMid"
   version="1.0"
   id="svg51"
   xmlns="http://www.w3.org/2000/svg"
   xmlns:svg="http://www.w3.org/2000/svg">
  <defs
     id="defs3">
    <clipPath
       id="421176500d">
      <path
         d="m 72,182 h 107 v 28 H 72 Z m 0,0"
         clip-rule="nonzero"
         id="path1" />
    </clipPath>
    <clipPath
       id="b58f8bc592">
      <path
         d="m 71.53125,197.05469 106.09766,-15.67188 4.49609,30.41797 -106.097656,15.67578 z m 0,0"
         clip-rule="nonzero"
         id="path2" />
    </clipPath>
    <clipPath
       id="1b72241a05">
      <path
         d="m 71.53125,197.05469 106.09766,-15.67188 4.49609,30.41797 -106.097656,15.67578 z m 0,0"
         clip-rule="nonzero"
         id="path3" />
    </clipPath>
  </defs>
  <g
     clip-path="url(#421176500d)"
     id="g6"
     transform="translate(-55.926887,-126.08788)">
    <g
       clip-path="url(#b58f8bc592)"
       id="g5">
      <g
         clip-path="url(#1b72241a05)"
         id="g4">
        <path
           fill="#2b1511"
           d="m 74.195312,197.91016 c 32.640628,22.89453 87.429688,1.29296 102.867188,-14.9375 l 1.04687,0.99609 c -14.84375,15.60547 -70.62109,38.58984 -104.675776,15.90234 -1.664063,-1.10937 -0.363282,-2.75 0.761718,-1.96093 z m 0,0"
           fill-opacity="1"
           fill-rule="nonzero"
           id="path4" />
      </g>
    </g>
  </g>
  <g
     fill="#2b1511"
     fill-opacity="1"
     id="g9"
     transform="translate(-55.926887,-126.08788)">
    <g
       transform="translate(152.50049,188.21401)"
       id="g8">
      <g
         id="g7">
        <path
           d="M 14.125,9.171875 C 12.050781,9.492188 10.234375,9.46875 8.671875,9.09375 7.109375,8.71875 6.242188,7.984375 6.078125,6.890625 c -0.15625,-0.980469 0.34375,-2.03125 1.5,-3.15625 1.164063,-1.117187 3.40625,-2.652344 6.71875,-4.609375 3.320313,-1.957031 8.28125,-4.625 14.875,-8 -1.71875,-2.519531 -5.539063,-4.929688 -11.453125,-7.234375 -3.898438,-1.394531 -7.195312,-3.050781 -9.890625,-4.96875 -2.6875,-1.925781 -3.984375,-4.785156 -3.890625,-8.578125 0.132812,-3.363281 1.515625,-6.804688 4.140625,-10.328125 2.625,-3.53125 5.953125,-6.828125 9.984375,-9.890625 4.03125,-3.070312 8.300781,-5.679688 12.8125,-7.828125 4.507812,-2.15625 8.664062,-3.53125 12.46875,-4.125 4.132812,-0.632813 7.3125,-0.257813 9.53125,1.125 2.21875,1.386719 3.296875,3.699219 3.234375,6.9375 -0.117187,5.679687 -3.089844,11.25 -8.921875,16.71875 -0.08594,0.136719 -0.292969,0.230469 -0.625,0.28125 -0.648438,0.105469 -1.011719,-0.113281 -1.09375,-0.65625 -0.04297,-0.21875 0.07813,-0.519531 0.359375,-0.90625 5.625,-5.320313 8.4375,-10.484375 8.4375,-15.484375 0.07031,-5.25 -3.476563,-7.320312 -10.640625,-6.21875 -3.699219,0.574219 -7.726562,1.898438 -12.078125,3.96875 -4.355469,2.0625 -8.449219,4.5625 -12.28125,7.5 -3.824219,2.929688 -6.984375,6.03125 -9.484375,9.3125 -2.492188,3.28125 -3.777344,6.484375 -3.859375,9.609375 -0.074219,3.125 1.019531,5.515625 3.28125,7.171875 2.257813,1.65625 5.285156,3.195312 9.078125,4.609375 3.195312,1.292969 5.84375,2.585937 7.9375,3.875 2.09375,1.292969 3.65625,2.746094 4.6875,4.359375 l 3.703125,-1.921875 26.40625,-13.765625 c 0,0 0.02344,-0.0039 0.07813,-0.01563 0.05078,-0.0078 0.132812,-0.01953 0.25,-0.03125 0.550781,-0.08203 0.878906,0.199219 0.984375,0.84375 0.0625,0.4375 -0.117187,0.742187 -0.53125,0.90625 -5.042969,2.667969 -9.777344,5.15625 -14.203125,7.46875 -4.429688,2.304687 -8.449219,4.398437 -12.0625,6.28125 l -3.875,1.9375 c 1.195312,1.9375 1.007812,4.140625 -0.5625,6.609375 -1.5625,2.46875 -3.890625,4.691406 -6.984375,6.671875 -3.085937,1.988281 -6.414063,3.257813 -9.984375,3.8125 z M 13.84375,7.375 c 2.8125,-0.4375 5.546875,-1.421875 8.203125,-2.953125 2.664063,-1.523437 4.796875,-3.242187 6.390625,-5.15625 1.59375,-1.914063 2.265625,-3.6875 2.015625,-5.3125 C 30.390625,-6.492188 30.28125,-6.863281 30.125,-7.15625 24.039062,-4 19.382812,-1.503906 16.15625,0.328125 12.9375,2.160156 10.757812,3.53125 9.625,4.4375 8.488281,5.34375 7.960938,6.0625 8.046875,6.59375 8.117188,7.039062 8.691406,7.34375 9.765625,7.5 10.835938,7.664062 12.195312,7.625 13.84375,7.375 Z m 0,0"
           id="path6" />
      </g>
    </g>
  </g>
  <g
     fill="#2b1511"
     fill-opacity="1"
     id="g12"
     transform="translate(-55.926887,-126.08788)">
    <g
       transform="translate(55.489387,183.14658)"
       id="g11">
      <g
         id="g10">
        <path
           d="M 3.078125,-3.75 C 1.460938,-4.125 0.65625,-4.816406 0.65625,-5.828125 0.65625,-6.566406 0.914062,-7.125 1.4375,-7.5 c 0.519531,-0.363281 1.128906,-0.546875 1.828125,-0.546875 1.550781,0 2.46875,0.574219 2.75,1.71875 h -0.875 c -0.15625,-0.6875 -0.78125,-1.03125 -1.875,-1.03125 -0.761719,0 -1.292969,0.230469 -1.59375,0.6875 C 1.554688,-6.503906 1.5,-6.289062 1.5,-6.03125 c 0,0.492188 0.257812,0.867188 0.78125,1.125 0.25,0.136719 0.78125,0.308594 1.59375,0.515625 0.8125,0.210937 1.398438,0.445313 1.765625,0.703125 0.5,0.355469 0.75,0.855469 0.75,1.5 0,0.804688 -0.3125,1.414062 -0.9375,1.828125 -0.53125,0.34375 -1.1875,0.515625 -1.96875,0.515625 -1.75,0 -2.765625,-0.671875 -3.046875,-2.015625 H 1.40625 C 1.550781,-1.015625 2.242188,-0.59375 3.484375,-0.59375 4.378906,-0.59375 5,-0.835938 5.34375,-1.328125 5.488281,-1.523438 5.5625,-1.789062 5.5625,-2.125 5.5625,-2.445312 5.429688,-2.710938 5.171875,-2.921875 4.804688,-3.222656 4.109375,-3.5 3.078125,-3.75 Z m 0,0"
           id="path9" />
      </g>
    </g>
  </g>
  <g
     fill="#2b1511"
     fill-opacity="1"
     id="g15"
     transform="translate(-55.926887,-126.08788)">
    <g
       transform="translate(68.552395,183.14658)"
       id="g14">
      <g
         id="g13">
        <path
           d="m 7.859375,-3.984375 c 0,-0.894531 -0.320313,-1.664063 -0.953125,-2.3125 C 6.269531,-6.929688 5.5,-7.25 4.59375,-7.25 c -0.898438,0 -1.664062,0.320312 -2.296875,0.953125 -0.636719,0.648437 -0.953125,1.417969 -0.953125,2.3125 0,0.898437 0.316406,1.664063 0.953125,2.296875 0.632813,0.648438 1.398437,0.96875 2.296875,0.96875 0.90625,0 1.675781,-0.320312 2.3125,-0.96875 0.632812,-0.632812 0.953125,-1.398438 0.953125,-2.296875 z m 0.828125,0 c 0,0.554687 -0.105469,1.078125 -0.3125,1.578125 -0.21875,0.5 -0.511719,0.933594 -0.875,1.296875 -0.375,0.375 -0.8125,0.667969 -1.3125,0.875 -0.5,0.21875 -1.03125,0.328125 -1.59375,0.328125 -0.554688,0 -1.078125,-0.109375 -1.578125,-0.328125 -0.492187,-0.207031 -0.917969,-0.5 -1.28125,-0.875 -0.375,-0.363281 -0.667969,-0.796875 -0.875,-1.296875 -0.21875,-0.5 -0.328125,-1.023438 -0.328125,-1.578125 0,-0.5625 0.109375,-1.09375 0.328125,-1.59375 0.207031,-0.5 0.5,-0.929687 0.875,-1.296875 0.363281,-0.363281 0.789063,-0.65625 1.28125,-0.875 0.5,-0.207031 1.023437,-0.3125 1.578125,-0.3125 0.5625,0 1.09375,0.105469 1.59375,0.3125 0.5,0.21875 0.9375,0.511719 1.3125,0.875 0.363281,0.367188 0.65625,0.796875 0.875,1.296875 0.207031,0.5 0.3125,1.03125 0.3125,1.59375 z m 0,0"
           id="path12" />
      </g>
    </g>
  </g>
  <g
     fill="#2b1511"
     fill-opacity="1"
     id="g18"
     transform="translate(-55.926887,-126.08788)">
    <g
       transform="translate(84.125284,183.14658)"
       id="g17">
      <g
         id="g16">
        <path
           d="m 6.625,-2.625 c 0,0.855469 -0.28125,1.53125 -0.84375,2.03125 C 5.25,-0.125 4.546875,0.109375 3.671875,0.109375 c -0.898437,0 -1.605469,-0.234375 -2.125,-0.703125 -0.5625,-0.5 -0.84375,-1.175781 -0.84375,-2.03125 v -5.3125 h 0.8125 v 5.421875 c 0,0.605469 0.21875,1.070313 0.65625,1.390625 0.375,0.273438 0.875,0.40625 1.5,0.40625 0.96875,0 1.617187,-0.320312 1.953125,-0.96875 0.113281,-0.226562 0.171875,-0.503906 0.171875,-0.828125 V -7.9375 H 6.625 Z m 0,0"
           id="path15" />
      </g>
    </g>
  </g>
  <g
     fill="#2b1511"
     fill-opacity="1"
     id="g21"
     transform="translate(-55.926887,-126.08788)">
    <g
       transform="translate(97.807006,183.14658)"
       id="g20">
      <g
         id="g19">
        <path
           d="M 1.6875,0 H 0.875 v -7.9375 h 0.8125 v 3.71875 L 4.359375,-7.9375 h 1.0625 L 2.5,-3.96875 5.421875,0 h -1.0625 L 1.6875,-3.71875 Z m 0,0"
           id="path18" />
      </g>
    </g>
  </g>
  <g
     fill="#2b1511"
     fill-opacity="1"
     id="g24"
     transform="translate(-55.926887,-126.08788)">
    <g
       transform="translate(109.70262,183.14658)"
       id="g23">
      <g
         id="g22">
        <path
           d="m 2.15625,-2.921875 h 2.890625 l -1.4375,-3.65625 z M 7.078125,0 h -0.875 L 5.34375,-2.15625 H 1.859375 L 1,0 H 0.109375 l 3.5,-8.484375 z m 0,0"
           id="path21" />
      </g>
    </g>
  </g>
  <g
     fill="#2b1511"
     fill-opacity="1"
     id="g27"
     transform="translate(-55.926887,-126.08788)">
    <g
       transform="translate(123.26761,183.14658)"
       id="g26">
      <g
         id="g25">
        <path
           d="M 1.6875,0 H 0.875 v -7.9375 h 0.8125 z m 0,0"
           id="path24" />
      </g>
    </g>
  </g>
  <g
     fill="#2b1511"
     fill-opacity="1"
     id="g30"
     transform="translate(-55.926887,-126.08788)">
    <g
       transform="translate(132.19807,183.14658)"
       id="g29">
      <g
         id="g28">
        <path
           d="M 1.6875,-5.84375 V 0 H 0.875 v -8.4375 l 4.453125,6.34375 V -7.9375 H 6.15625 v 8.421875 z m 0,0"
           id="path27" />
      </g>
    </g>
  </g>
  <g
     fill="#2b1511"
     fill-opacity="1"
     id="g33"
     transform="translate(-55.926887,-126.08788)">
    <g
       transform="translate(145.58795,183.14658)"
       id="g32">
      <g
         id="g31">
        <path
           d="m 2.15625,-2.921875 h 2.890625 l -1.4375,-3.65625 z M 7.078125,0 h -0.875 L 5.34375,-2.15625 H 1.859375 L 1,0 H 0.109375 l 3.5,-8.484375 z m 0,0"
           id="path30" />
      </g>
    </g>
  </g>
  <g
     fill="#2b1511"
     fill-opacity="1"
     id="g36"
     transform="translate(-55.926887,-126.08788)">
    <g
       transform="translate(250.12182,219.11231)"
       id="g35">
      <g
         id="g34">
        <path
           d="m 8.1875,0 -1.234375,-5.65625 -2.375,6.125 L 2.1875,-5.65625 0.953125,0 H 0.109375 L 1.96875,-8.46875 4.578125,-1.671875 7.171875,-8.46875 9.015625,0 Z m 0,0"
           id="path33" />
      </g>
    </g>
  </g>
  <g
     fill="#2b1511"
     fill-opacity="1"
     id="g39"
     transform="translate(-55.926887,-126.08788)">
    <g
       transform="translate(265.62468,219.11231)"
       id="g38">
      <g
         id="g37">
        <path
           d="M 5.59375,0 H 0.875 v -7.9375 h 4.71875 v 0.765625 H 1.6875 v 2.8125 h 3.78125 v 0.78125 H 1.6875 v 2.8125 h 3.90625 z m 0,0"
           id="path36" />
      </g>
    </g>
  </g>
  <g
     fill="#2b1511"
     fill-opacity="1"
     id="g42"
     transform="translate(-55.926887,-126.08788)">
    <g
       transform="translate(278.45421,219.11231)"
       id="g41">
      <g
         id="g40">
        <path
           d="M 1.6875,0 H 0.875 v -7.9375 h 0.8125 v 3.578125 H 5.296875 V -7.9375 h 0.8125 V 0 h -0.8125 V -3.546875 H 1.6875 Z m 0,0"
           id="path39" />
      </g>
    </g>
  </g>
  <g
     fill="#2b1511"
     fill-opacity="1"
     id="g45"
     transform="translate(-55.926887,-126.08788)">
    <g
       transform="translate(291.80906,219.11231)"
       id="g44">
      <g
         id="g43">
        <path
           d="m 7.03125,-3.96875 c 0,0.574219 -0.105469,1.105469 -0.3125,1.59375 C 6.5,-1.882812 6.207031,-1.46875 5.84375,-1.125 5.476562,-0.769531 5.046875,-0.492188 4.546875,-0.296875 4.054688,-0.0976562 3.523438,0 2.953125,0 H 0.875 v -7.9375 h 2.078125 c 0.570313,0 1.101563,0.101562 1.59375,0.296875 0.5,0.199219 0.929687,0.476563 1.296875,0.828125 0.363281,0.34375 0.65625,0.761719 0.875,1.25 0.207031,0.492188 0.3125,1.023438 0.3125,1.59375 z m -0.78125,0 C 6.25,-4.875 5.925781,-5.628906 5.28125,-6.234375 4.664062,-6.828125 3.894531,-7.125 2.96875,-7.125 H 1.6875 v 6.3125 h 1.28125 c 0.925781,0 1.695312,-0.296875 2.3125,-0.890625 C 5.925781,-2.304688 6.25,-3.0625 6.25,-3.96875 Z m 0,0"
           id="path42" />
      </g>
    </g>
  </g>
  <g
     fill="#2b1511"
     fill-opacity="1"
     id="g48"
     transform="translate(-55.926887,-126.08788)">
    <g
       transform="translate(305.73595,219.11231)"
       id="g47">
      <g
         id="g46">
        <path
           d="M 1.6875,0 H 0.875 v -7.9375 h 0.8125 z m 0,0"
           id="path45" />
      </g>
    </g>
  </g>
  <g
     fill="#2b1511"
     fill-opacity="1"
     id="g51"
     transform="translate(-55.926887,-126.08788)">
    <g
       transform="translate(173.21555,217.27968)"
       id="g50">
      <g
         id="g49">
        <path
           d="m 66.53125,0.203125 c -0.667969,0.019531 -1.011719,-0.351563 -1.03125,-1.125 -0.01172,-0.320313 0.359375,-0.988281 1.109375,-2 6.414063,-7.75 12.046875,-14.867187 16.890625,-21.359375 4.851562,-6.5 8.65625,-12.039062 11.40625,-16.625 2.75,-4.582031 4.101562,-7.8125 4.0625,-9.6875 -0.03125,-0.988281 -0.542969,-1.46875 -1.53125,-1.4375 -1.542969,0.03125 -3.777344,1.078125 -6.703125,3.140625 -2.917969,2.054687 -6.203125,4.773437 -9.859375,8.15625 -3.648438,3.386719 -7.40625,7.109375 -11.28125,11.171875 -3.867188,4.054688 -7.5625,8.125 -11.09375,12.21875 -3.53125,4.09375 -6.632812,7.886719 -9.296875,11.375 -0.3125,0.449219 -0.75,0.511719 -1.3125,0.1875 -0.5625,-0.3125 -0.683594,-0.75 -0.359375,-1.3125 0.632812,-1 1.375,-2.113281 2.21875,-3.34375 0.851562,-1.238281 1.757812,-2.585938 2.71875,-4.046875 2.113281,-3.125 4.257812,-6.359375 6.4375,-9.703125 2.175781,-3.351562 4,-6.476562 5.46875,-9.375 1.476562,-2.894531 2.195312,-5.222656 2.15625,-6.984375 -0.03125,-1.425781 -0.929688,-2.117187 -2.6875,-2.078125 -2.09375,0.05469 -4.578125,0.882812 -7.453125,2.484375 -2.875,1.605469 -5.875,3.714844 -9,6.328125 -2.011719,3.78125 -4.402344,7.664062 -7.171875,11.640625 -2.761719,3.96875 -5.53125,7.640625 -8.3125,11.015625 -2.773438,3.367188 -5.3125,6.070312 -7.625,8.109375 -2.3125,2.03125 -4.023438,3.0546875 -5.125,3.078125 -1.105469,0.03125 -1.671875,-0.445312 -1.703125,-1.4375 -0.02344,-0.988281 0.789063,-2.710938 2.4375,-5.171875 1.65625,-2.46875 3.84375,-5.359375 6.5625,-8.671875 2.71875,-3.3125 5.769531,-6.710938 9.15625,-10.203125 3.382813,-3.488281 6.800781,-6.648437 10.25,-9.484375 1.375,-2.5625 2.441406,-5.035156 3.203125,-7.421875 0.769531,-2.382813 1.132812,-4.457031 1.09375,-6.21875 -0.0625,-2.632813 -1.195312,-3.925781 -3.390625,-3.875 -6.273437,0.148437 -13.367187,4.882813 -21.28125,14.203125 -0.117187,0.21875 -0.386719,0.335938 -0.8125,0.34375 -0.554687,0.02344 -0.835937,-0.238281 -0.84375,-0.78125 -0.01172,-0.332031 0.03906,-0.5625 0.15625,-0.6875 4.050781,-4.820312 8,-8.515625 11.84375,-11.078125 3.851563,-2.570313 7.484375,-3.898437 10.890625,-3.984375 1.539062,-0.03906 2.816406,0.453125 3.828125,1.484375 1.019531,1.023437 1.550781,2.464844 1.59375,4.328125 0.03125,1.4375 -0.234375,3.101562 -0.796875,4.984375 -0.554688,1.875 -1.296875,3.929687 -2.234375,6.15625 2.800781,-2.164063 5.453125,-3.882813 7.953125,-5.15625 2.5,-1.269531 4.738281,-1.925781 6.71875,-1.96875 3.082031,-0.07031 4.660156,1.265625 4.734375,4.015625 0.03906,1.867188 -0.699219,4.304688 -2.21875,7.3125 -1.523437,3.011719 -3.5,6.464844 -5.9375,10.359375 -0.4375,0.449219 -0.574219,0.757813 -0.40625,0.921875 0.175781,0.15625 0.472656,-0.04687 0.890625,-0.609375 4.9375,-5.5 9.796875,-10.585937 14.578125,-15.265625 4.78125,-4.6875 9.113281,-8.507812 13,-11.46875 3.882813,-2.957031 6.875,-4.457031 8.96875,-4.5 2.3125,-0.0625 3.500005,1.007812 3.562505,3.203125 0.0391,2.09375 -1.261724,5.433594 -3.906255,10.015625 -2.636719,4.574219 -6.328125,10.054688 -11.078125,16.4375 -4.742188,6.386719 -10.3125,13.398438 -16.71875,21.03125 0.4375,0.210938 0.441406,0.59375 0.01563,1.15625 -0.417969,0.449219 -0.871094,0.929688 -1.359375,1.4375 -0.480469,0.5 -0.9375,0.753906 -1.375,0.765625 z M 20.40625,-2.3125 c 1.519531,-0.914062 3.644531,-2.835938 6.375,-5.765625 2.738281,-2.925781 5.597656,-6.378906 8.578125,-10.359375 2.988281,-3.976562 5.703125,-7.914062 8.140625,-11.8125 0.113281,-0.125 -0.210938,0.101562 -0.96875,0.671875 -0.761719,0.574219 -1.730469,1.480469 -2.90625,2.71875 -3.125,3.03125 -6.054688,6.125 -8.78125,9.28125 -2.730469,3.148437 -5.054688,6.007813 -6.96875,8.578125 -1.90625,2.574219 -3.230469,4.589844 -3.96875,6.046875 -0.3125,0.667969 -0.148438,0.882813 0.5,0.640625 z m 0,0"
           id="path48" />
      </g>
    </g>
  </g>
</svg>
