<svg xmlns="http://www.w3.org/2000/svg" xmlns:xlink="http://www.w3.org/1999/xlink" width="500" zoomAndPan="magnify" viewBox="0 0 375 374.999991" height="500" preserveAspectRatio="xMidYMid meet" version="1.0"><defs><g/><clipPath id="421176500d"><path d="M 72 182 L 179 182 L 179 210 L 72 210 Z M 72 182 " clip-rule="nonzero"/></clipPath><clipPath id="b58f8bc592"><path d="M 71.53125 197.054688 L 177.628906 181.382812 L 182.125 211.800781 L 76.027344 227.476562 Z M 71.53125 197.054688 " clip-rule="nonzero"/></clipPath><clipPath id="1b72241a05"><path d="M 71.53125 197.054688 L 177.628906 181.382812 L 182.125 211.800781 L 76.027344 227.476562 Z M 71.53125 197.054688 " clip-rule="nonzero"/></clipPath></defs><rect x="-37.5" width="450" fill="#ffffff" y="-37.499999" height="449.999989" fill-opacity="1"/><rect x="-37.5" width="450" fill="#ffffff" y="-37.499999" height="449.999989" fill-opacity="1"/><g clip-path="url(#421176500d)"><g clip-path="url(#b58f8bc592)"><g clip-path="url(#1b72241a05)"><path fill="#2b1511" d="M 74.195312 197.910156 C 106.835938 220.804688 161.625 199.203125 177.0625 182.972656 L 178.109375 183.96875 C 163.265625 199.574219 107.488281 222.558594 73.433594 199.871094 C 71.769531 198.761719 73.070312 197.121094 74.195312 197.910156 Z M 74.195312 197.910156 " fill-opacity="1" fill-rule="nonzero"/></g></g></g><g fill="#2b1511" fill-opacity="1"><g transform="translate(152.500486, 188.214013)"><g><path d="M 14.125 9.171875 C 12.050781 9.492188 10.234375 9.46875 8.671875 9.09375 C 7.109375 8.71875 6.242188 7.984375 6.078125 6.890625 C 5.921875 5.910156 6.421875 4.859375 7.578125 3.734375 C 8.742188 2.617188 10.984375 1.082031 14.296875 -0.875 C 17.617188 -2.832031 22.578125 -5.5 29.171875 -8.875 C 27.453125 -11.394531 23.632812 -13.804688 17.71875 -16.109375 C 13.820312 -17.503906 10.523438 -19.160156 7.828125 -21.078125 C 5.140625 -23.003906 3.84375 -25.863281 3.9375 -29.65625 C 4.070312 -33.019531 5.453125 -36.460938 8.078125 -39.984375 C 10.703125 -43.515625 14.03125 -46.8125 18.0625 -49.875 C 22.09375 -52.945312 26.363281 -55.554688 30.875 -57.703125 C 35.382812 -59.859375 39.539062 -61.234375 43.34375 -61.828125 C 47.476562 -62.460938 50.65625 -62.085938 52.875 -60.703125 C 55.09375 -59.316406 56.171875 -57.003906 56.109375 -53.765625 C 55.992188 -48.085938 53.019531 -42.515625 47.1875 -37.046875 C 47.101562 -36.910156 46.894531 -36.816406 46.5625 -36.765625 C 45.914062 -36.660156 45.550781 -36.878906 45.46875 -37.421875 C 45.425781 -37.640625 45.546875 -37.941406 45.828125 -38.328125 C 51.453125 -43.648438 54.265625 -48.8125 54.265625 -53.8125 C 54.335938 -59.0625 50.789062 -61.132812 43.625 -60.03125 C 39.925781 -59.457031 35.898438 -58.132812 31.546875 -56.0625 C 27.191406 -54 23.097656 -51.5 19.265625 -48.5625 C 15.441406 -45.632812 12.28125 -42.53125 9.78125 -39.25 C 7.289062 -35.96875 6.003906 -32.765625 5.921875 -29.640625 C 5.847656 -26.515625 6.941406 -24.125 9.203125 -22.46875 C 11.460938 -20.8125 14.488281 -19.273438 18.28125 -17.859375 C 21.476562 -16.566406 24.125 -15.273438 26.21875 -13.984375 C 28.3125 -12.691406 29.875 -11.238281 30.90625 -9.625 L 34.609375 -11.546875 L 61.015625 -25.3125 C 61.015625 -25.3125 61.039062 -25.316406 61.09375 -25.328125 C 61.144531 -25.335938 61.226562 -25.347656 61.34375 -25.359375 C 61.894531 -25.441406 62.222656 -25.160156 62.328125 -24.515625 C 62.390625 -24.078125 62.210938 -23.773438 61.796875 -23.609375 C 56.753906 -20.941406 52.019531 -18.453125 47.59375 -16.140625 C 43.164062 -13.835938 39.144531 -11.742188 35.53125 -9.859375 L 31.65625 -7.921875 C 32.851562 -5.984375 32.664062 -3.78125 31.09375 -1.3125 C 29.53125 1.15625 27.203125 3.378906 24.109375 5.359375 C 21.023438 7.347656 17.695312 8.617188 14.125 9.171875 Z M 13.84375 7.375 C 16.65625 6.9375 19.390625 5.953125 22.046875 4.421875 C 24.710938 2.898438 26.84375 1.179688 28.4375 -0.734375 C 30.03125 -2.648438 30.703125 -4.421875 30.453125 -6.046875 C 30.390625 -6.492188 30.28125 -6.863281 30.125 -7.15625 C 24.039062 -4 19.382812 -1.503906 16.15625 0.328125 C 12.9375 2.160156 10.757812 3.53125 9.625 4.4375 C 8.488281 5.34375 7.960938 6.0625 8.046875 6.59375 C 8.117188 7.039062 8.691406 7.34375 9.765625 7.5 C 10.835938 7.664062 12.195312 7.625 13.84375 7.375 Z M 13.84375 7.375 "/></g></g></g><g fill="#2b1511" fill-opacity="1"><g transform="translate(55.489387, 183.146579)"><g><path d="M 3.078125 -3.75 C 1.460938 -4.125 0.65625 -4.816406 0.65625 -5.828125 C 0.65625 -6.566406 0.914062 -7.125 1.4375 -7.5 C 1.957031 -7.863281 2.566406 -8.046875 3.265625 -8.046875 C 4.816406 -8.046875 5.734375 -7.472656 6.015625 -6.328125 L 5.140625 -6.328125 C 4.984375 -7.015625 4.359375 -7.359375 3.265625 -7.359375 C 2.503906 -7.359375 1.972656 -7.128906 1.671875 -6.671875 C 1.554688 -6.503906 1.5 -6.289062 1.5 -6.03125 C 1.5 -5.539062 1.757812 -5.164062 2.28125 -4.90625 C 2.53125 -4.769531 3.0625 -4.597656 3.875 -4.390625 C 4.6875 -4.179688 5.273438 -3.945312 5.640625 -3.6875 C 6.140625 -3.332031 6.390625 -2.832031 6.390625 -2.1875 C 6.390625 -1.382812 6.078125 -0.773438 5.453125 -0.359375 C 4.921875 -0.015625 4.265625 0.15625 3.484375 0.15625 C 1.734375 0.15625 0.71875 -0.515625 0.4375 -1.859375 L 1.40625 -1.859375 C 1.550781 -1.015625 2.242188 -0.59375 3.484375 -0.59375 C 4.378906 -0.59375 5 -0.835938 5.34375 -1.328125 C 5.488281 -1.523438 5.5625 -1.789062 5.5625 -2.125 C 5.5625 -2.445312 5.429688 -2.710938 5.171875 -2.921875 C 4.804688 -3.222656 4.109375 -3.5 3.078125 -3.75 Z M 3.078125 -3.75 "/></g></g></g><g fill="#2b1511" fill-opacity="1"><g transform="translate(68.552395, 183.146579)"><g><path d="M 7.859375 -3.984375 C 7.859375 -4.878906 7.539062 -5.648438 6.90625 -6.296875 C 6.269531 -6.929688 5.5 -7.25 4.59375 -7.25 C 3.695312 -7.25 2.929688 -6.929688 2.296875 -6.296875 C 1.660156 -5.648438 1.34375 -4.878906 1.34375 -3.984375 C 1.34375 -3.085938 1.660156 -2.320312 2.296875 -1.6875 C 2.929688 -1.039062 3.695312 -0.71875 4.59375 -0.71875 C 5.5 -0.71875 6.269531 -1.039062 6.90625 -1.6875 C 7.539062 -2.320312 7.859375 -3.085938 7.859375 -3.984375 Z M 8.6875 -3.984375 C 8.6875 -3.429688 8.582031 -2.90625 8.375 -2.40625 C 8.15625 -1.90625 7.863281 -1.472656 7.5 -1.109375 C 7.125 -0.734375 6.6875 -0.441406 6.1875 -0.234375 C 5.6875 -0.015625 5.15625 0.09375 4.59375 0.09375 C 4.039062 0.09375 3.515625 -0.015625 3.015625 -0.234375 C 2.523438 -0.441406 2.097656 -0.734375 1.734375 -1.109375 C 1.359375 -1.472656 1.066406 -1.90625 0.859375 -2.40625 C 0.640625 -2.90625 0.53125 -3.429688 0.53125 -3.984375 C 0.53125 -4.546875 0.640625 -5.078125 0.859375 -5.578125 C 1.066406 -6.078125 1.359375 -6.507812 1.734375 -6.875 C 2.097656 -7.238281 2.523438 -7.53125 3.015625 -7.75 C 3.515625 -7.957031 4.039062 -8.0625 4.59375 -8.0625 C 5.15625 -8.0625 5.6875 -7.957031 6.1875 -7.75 C 6.6875 -7.53125 7.125 -7.238281 7.5 -6.875 C 7.863281 -6.507812 8.15625 -6.078125 8.375 -5.578125 C 8.582031 -5.078125 8.6875 -4.546875 8.6875 -3.984375 Z M 8.6875 -3.984375 "/></g></g></g><g fill="#2b1511" fill-opacity="1"><g transform="translate(84.125284, 183.146579)"><g><path d="M 6.625 -2.625 C 6.625 -1.769531 6.34375 -1.09375 5.78125 -0.59375 C 5.25 -0.125 4.546875 0.109375 3.671875 0.109375 C 2.773438 0.109375 2.066406 -0.125 1.546875 -0.59375 C 0.984375 -1.09375 0.703125 -1.769531 0.703125 -2.625 L 0.703125 -7.9375 L 1.515625 -7.9375 L 1.515625 -2.515625 C 1.515625 -1.910156 1.734375 -1.445312 2.171875 -1.125 C 2.546875 -0.851562 3.046875 -0.71875 3.671875 -0.71875 C 4.640625 -0.71875 5.289062 -1.039062 5.625 -1.6875 C 5.738281 -1.914062 5.796875 -2.191406 5.796875 -2.515625 L 5.796875 -7.9375 L 6.625 -7.9375 Z M 6.625 -2.625 "/></g></g></g><g fill="#2b1511" fill-opacity="1"><g transform="translate(97.807006, 183.146579)"><g><path d="M 1.6875 0 L 0.875 0 L 0.875 -7.9375 L 1.6875 -7.9375 L 1.6875 -4.21875 L 4.359375 -7.9375 L 5.421875 -7.9375 L 2.5 -3.96875 L 5.421875 0 L 4.359375 0 L 1.6875 -3.71875 Z M 1.6875 0 "/></g></g></g><g fill="#2b1511" fill-opacity="1"><g transform="translate(109.702625, 183.146579)"><g><path d="M 2.15625 -2.921875 L 5.046875 -2.921875 L 3.609375 -6.578125 Z M 7.078125 0 L 6.203125 0 L 5.34375 -2.15625 L 1.859375 -2.15625 L 1 0 L 0.109375 0 L 3.609375 -8.484375 Z M 7.078125 0 "/></g></g></g><g fill="#2b1511" fill-opacity="1"><g transform="translate(123.267613, 183.146579)"><g><path d="M 1.6875 0 L 0.875 0 L 0.875 -7.9375 L 1.6875 -7.9375 Z M 1.6875 0 "/></g></g></g><g fill="#2b1511" fill-opacity="1"><g transform="translate(132.198072, 183.146579)"><g><path d="M 1.6875 -5.84375 L 1.6875 0 L 0.875 0 L 0.875 -8.4375 L 5.328125 -2.09375 L 5.328125 -7.9375 L 6.15625 -7.9375 L 6.15625 0.484375 Z M 1.6875 -5.84375 "/></g></g></g><g fill="#2b1511" fill-opacity="1"><g transform="translate(145.587946, 183.146579)"><g><path d="M 2.15625 -2.921875 L 5.046875 -2.921875 L 3.609375 -6.578125 Z M 7.078125 0 L 6.203125 0 L 5.34375 -2.15625 L 1.859375 -2.15625 L 1 0 L 0.109375 0 L 3.609375 -8.484375 Z M 7.078125 0 "/></g></g></g><g fill="#2b1511" fill-opacity="1"><g transform="translate(250.121825, 219.112314)"><g><path d="M 8.1875 0 L 6.953125 -5.65625 L 4.578125 0.46875 L 2.1875 -5.65625 L 0.953125 0 L 0.109375 0 L 1.96875 -8.46875 L 4.578125 -1.671875 L 7.171875 -8.46875 L 9.015625 0 Z M 8.1875 0 "/></g></g></g><g fill="#2b1511" fill-opacity="1"><g transform="translate(265.624679, 219.112314)"><g><path d="M 5.59375 0 L 0.875 0 L 0.875 -7.9375 L 5.59375 -7.9375 L 5.59375 -7.171875 L 1.6875 -7.171875 L 1.6875 -4.359375 L 5.46875 -4.359375 L 5.46875 -3.578125 L 1.6875 -3.578125 L 1.6875 -0.765625 L 5.59375 -0.765625 Z M 5.59375 0 "/></g></g></g><g fill="#2b1511" fill-opacity="1"><g transform="translate(278.454207, 219.112314)"><g><path d="M 1.6875 0 L 0.875 0 L 0.875 -7.9375 L 1.6875 -7.9375 L 1.6875 -4.359375 L 5.296875 -4.359375 L 5.296875 -7.9375 L 6.109375 -7.9375 L 6.109375 0 L 5.296875 0 L 5.296875 -3.546875 L 1.6875 -3.546875 Z M 1.6875 0 "/></g></g></g><g fill="#2b1511" fill-opacity="1"><g transform="translate(291.809061, 219.112314)"><g><path d="M 7.03125 -3.96875 C 7.03125 -3.394531 6.925781 -2.863281 6.71875 -2.375 C 6.5 -1.882812 6.207031 -1.46875 5.84375 -1.125 C 5.476562 -0.769531 5.046875 -0.492188 4.546875 -0.296875 C 4.054688 -0.0976562 3.523438 0 2.953125 0 L 0.875 0 L 0.875 -7.9375 L 2.953125 -7.9375 C 3.523438 -7.9375 4.054688 -7.835938 4.546875 -7.640625 C 5.046875 -7.441406 5.476562 -7.164062 5.84375 -6.8125 C 6.207031 -6.46875 6.5 -6.050781 6.71875 -5.5625 C 6.925781 -5.070312 7.03125 -4.539062 7.03125 -3.96875 Z M 6.25 -3.96875 C 6.25 -4.875 5.925781 -5.628906 5.28125 -6.234375 C 4.664062 -6.828125 3.894531 -7.125 2.96875 -7.125 L 1.6875 -7.125 L 1.6875 -0.8125 L 2.96875 -0.8125 C 3.894531 -0.8125 4.664062 -1.109375 5.28125 -1.703125 C 5.925781 -2.304688 6.25 -3.0625 6.25 -3.96875 Z M 6.25 -3.96875 "/></g></g></g><g fill="#2b1511" fill-opacity="1"><g transform="translate(305.735946, 219.112314)"><g><path d="M 1.6875 0 L 0.875 0 L 0.875 -7.9375 L 1.6875 -7.9375 Z M 1.6875 0 "/></g></g></g><g fill="#2b1511" fill-opacity="1"><g transform="translate(173.215549, 217.279683)"><g><path d="M 66.53125 0.203125 C 65.863281 0.222656 65.519531 -0.148438 65.5 -0.921875 C 65.488281 -1.242188 65.859375 -1.910156 66.609375 -2.921875 C 73.023438 -10.671875 78.65625 -17.789062 83.5 -24.28125 C 88.351562 -30.78125 92.15625 -36.320312 94.90625 -40.90625 C 97.65625 -45.488281 99.007812 -48.71875 98.96875 -50.59375 C 98.9375 -51.582031 98.425781 -52.0625 97.4375 -52.03125 C 95.894531 -52 93.660156 -50.953125 90.734375 -48.890625 C 87.816406 -46.835938 84.53125 -44.117188 80.875 -40.734375 C 77.226562 -37.347656 73.46875 -33.625 69.59375 -29.5625 C 65.726562 -25.507812 62.03125 -21.4375 58.5 -17.34375 C 54.96875 -13.25 51.867188 -9.457031 49.203125 -5.96875 C 48.890625 -5.519531 48.453125 -5.457031 47.890625 -5.78125 C 47.328125 -6.09375 47.207031 -6.53125 47.53125 -7.09375 C 48.164062 -8.09375 48.90625 -9.207031 49.75 -10.4375 C 50.601562 -11.675781 51.507812 -13.023438 52.46875 -14.484375 C 54.582031 -17.609375 56.726562 -20.84375 58.90625 -24.1875 C 61.082031 -27.539062 62.90625 -30.664062 64.375 -33.5625 C 65.851562 -36.457031 66.570312 -38.785156 66.53125 -40.546875 C 66.5 -41.972656 65.601562 -42.664062 63.84375 -42.625 C 61.75 -42.570312 59.265625 -41.742188 56.390625 -40.140625 C 53.515625 -38.535156 50.515625 -36.425781 47.390625 -33.8125 C 45.378906 -30.03125 42.988281 -26.148438 40.21875 -22.171875 C 37.457031 -18.203125 34.6875 -14.53125 31.90625 -11.15625 C 29.132812 -7.789062 26.59375 -5.085938 24.28125 -3.046875 C 21.96875 -1.015625 20.257812 0.0078125 19.15625 0.03125 C 18.050781 0.0625 17.484375 -0.414062 17.453125 -1.40625 C 17.429688 -2.394531 18.242188 -4.117188 19.890625 -6.578125 C 21.546875 -9.046875 23.734375 -11.9375 26.453125 -15.25 C 29.171875 -18.5625 32.222656 -21.960938 35.609375 -25.453125 C 38.992188 -28.941406 42.410156 -32.101562 45.859375 -34.9375 C 47.234375 -37.5 48.300781 -39.972656 49.0625 -42.359375 C 49.832031 -44.742188 50.195312 -46.816406 50.15625 -48.578125 C 50.09375 -51.210938 48.960938 -52.503906 46.765625 -52.453125 C 40.492188 -52.304688 33.398438 -47.570312 25.484375 -38.25 C 25.367188 -38.03125 25.097656 -37.914062 24.671875 -37.90625 C 24.117188 -37.882812 23.835938 -38.144531 23.828125 -38.6875 C 23.816406 -39.019531 23.867188 -39.25 23.984375 -39.375 C 28.035156 -44.195312 31.984375 -47.890625 35.828125 -50.453125 C 39.679688 -53.023438 43.3125 -54.351562 46.71875 -54.4375 C 48.257812 -54.476562 49.535156 -53.984375 50.546875 -52.953125 C 51.566406 -51.929688 52.097656 -50.488281 52.140625 -48.625 C 52.171875 -47.1875 51.90625 -45.523438 51.34375 -43.640625 C 50.789062 -41.765625 50.046875 -39.710938 49.109375 -37.484375 C 51.910156 -39.648438 54.5625 -41.367188 57.0625 -42.640625 C 59.5625 -43.910156 61.800781 -44.566406 63.78125 -44.609375 C 66.863281 -44.679688 68.441406 -43.34375 68.515625 -40.59375 C 68.554688 -38.726562 67.816406 -36.289062 66.296875 -33.28125 C 64.773438 -30.269531 62.796875 -26.816406 60.359375 -22.921875 C 59.921875 -22.472656 59.785156 -22.164062 59.953125 -22 C 60.128906 -21.84375 60.425781 -22.046875 60.84375 -22.609375 C 65.78125 -28.109375 70.640625 -33.195312 75.421875 -37.875 C 80.203125 -42.5625 84.535156 -46.382812 88.421875 -49.34375 C 92.304688 -52.300781 95.296875 -53.800781 97.390625 -53.84375 C 99.703125 -53.90625 100.890625 -52.835938 100.953125 -50.640625 C 100.992188 -48.546875 99.691406 -45.207031 97.046875 -40.625 C 94.410156 -36.050781 90.71875 -30.570312 85.96875 -24.1875 C 81.226562 -17.800781 75.65625 -10.789062 69.25 -3.15625 C 69.6875 -2.945312 69.691406 -2.5625 69.265625 -2 C 68.847656 -1.550781 68.394531 -1.070312 67.90625 -0.5625 C 67.425781 -0.0625 66.96875 0.191406 66.53125 0.203125 Z M 20.40625 -2.3125 C 21.925781 -3.226562 24.050781 -5.148438 26.78125 -8.078125 C 29.519531 -11.003906 32.378906 -14.457031 35.359375 -18.4375 C 38.347656 -22.414062 41.0625 -26.351562 43.5 -30.25 C 43.613281 -30.375 43.289062 -30.148438 42.53125 -29.578125 C 41.769531 -29.003906 40.800781 -28.097656 39.625 -26.859375 C 36.5 -23.828125 33.570312 -20.734375 30.84375 -17.578125 C 28.113281 -14.429688 25.789062 -11.570312 23.875 -9 C 21.96875 -6.425781 20.644531 -4.410156 19.90625 -2.953125 C 19.59375 -2.285156 19.757812 -2.070312 20.40625 -2.3125 Z M 20.40625 -2.3125 "/></g></g></g></svg>