<svg width="136" height="136" xmlns="http://www.w3.org/2000/svg"><path d="M67.837.677c37.326 0 67.693 30.154 67.693 67.214s-30.367 67.214-67.693 67.214C30.51 135.105.142 104.95.142 67.89S30.51.677 67.837.677zm-.002 133.92c37.106 0 67.185-29.863 67.185-66.705 0-36.838-30.079-66.708-67.185-66.708C30.732 1.184.653 31.054.653 67.892c0 36.842 30.08 66.705 67.182 66.705zm.002-105.887c-21.76 0-39.464 17.576-39.464 39.183 0 21.605 17.704 39.182 39.464 39.182 21.758 0 39.463-17.577 39.463-39.182 0-21.607-17.705-39.183-39.463-39.183zm0 78.704c-21.949 0-39.804-17.73-39.804-39.521 0-21.792 17.855-39.521 39.804-39.521 21.948 0 39.803 17.73 39.803 39.52 0 21.793-17.855 39.522-39.803 39.522zm-19.27-13.647c2.17-.675 2.984-2.467 3.32-4.984.092-.696.005-37.317.005-40.957 0-2.747-.961-5.124-2.81-5.41h.13c3.502.13 5.574 1.704 5.85 5.126.289 3.545.356 35.832-.404 41.916-.436 3.485-2.117 3.074-6.091 4.309zm31.22-.893c5.495-2.877 7.476-11.368 4.147-17.563-3.128-5.82-11.825-8.312-20.573-6.09v24.007c4.747 1.753 12.38 1.76 16.426-.354zM63.361 43.6h.001v22.22c6.566.698 12.577 1.477 16.787-1.614 5.748-4.229 5.16-14.372-.183-18.814-3.48-2.895-11.575-4.469-16.605-1.792zm28.332 35.475c.825 9.393-4.955 15.8-13.89 16.488-8.363.636-17.395-.5-26.53.175.579-1.154 2.338-.643 3.61-1.252 3.908-1.874 2.888-8.824 2.888-15.233V68.325c0-8.063.775-15.188 0-21.678-.483-4.04-2.993-4.959-6.677-5.377 14.01.04 30.545-2.564 36.451 6.093 1.482 2.173 2.57 5.936 2.165 9.85-.592 5.735-4.528 8.685-9.384 10.575 6.255.979 10.821 5.054 11.367 11.287zm13.372-43.389c1.46-1.456 1.06-2.626-.25-4.406-1.983-2.7-2.597-4.137-.173-6.556.854-.85 1.91-1.32 2.969-1.32.999 0 1.936.406 2.708 1.168.963.953 1.184 1.884 1.345 2.564.085.362.154.649.305.798a.33.33 0 00.24.105c.166 0 .352-.121.49-.21l.157-.099.391.391-3.18 3.172-.407-.406.08-.088c1.735-2.027 1.801-4.204.167-5.818-.582-.575-1.262-.88-1.968-.88-.723 0-1.428.323-2.04.932-1.207 1.203-1.084 1.858.882 4.66 1.84 2.605 1.85 4.171.042 5.974-1.056 1.05-2.244 1.606-3.438 1.606-1.118 0-2.17-.48-3.126-1.424-.911-.902-1.263-1.84-1.525-2.524-.152-.41-.275-.731-.456-.908-.072-.072-.145-.106-.221-.106-.203 0-.431.225-.553.348l-.092.092-.413-.41 3.794-3.781.411.408-.088.09c-2.53 2.526-1.861 4.982-.39 6.437.687.678 1.516 1.052 2.339 1.052.742 0 1.434-.299 2-.861zm-66.722-3.698c1.591-1.275 1.662-2.897.201-4.694-.677-.833-1.48-1.255-2.379-1.255-.823 0-1.715.366-2.579 1.06l-.75.6 4.284 5.27 1.223-.981zm-9.597-9.32l3.724 4.58.938-.75c1.563-1.255 2.282-2.49.705-4.427-.387-.477-1.157-.987-2.157-.987-.82 0-1.66.34-2.495 1.006l-.715.578zm11.908 3.168c.8.983 1.057 2.12.741 3.286-.256.945-.885 1.872-1.726 2.548l-5.483 4.397-.366-.45 1.495-1.2-8.376-10.302-1.496 1.2-.368-.45 4.904-3.93c1.187-.953 2.42-1.456 3.563-1.456.936 0 1.735.349 2.251.986 1.666 2.043.618 3.737-.352 4.806.738-.398 1.64-.744 2.567-.744 1.052 0 1.941.441 2.646 1.31zm50.813-13.089l.286-.504 9.625 5.358-1.583 3.331-.516-.288.06-.113c.983-1.74.45-3.15-1.637-4.311l-2.658-1.482-3.058 5.42 1.212.672c.483.271.92.41 1.299.41.801 0 1.3-.594 1.8-1.481l.065-.116.506.286-2.758 4.885-.506-.285.063-.11c.71-1.261 1.012-2.098-.773-3.094l-1.193-.664-3.15 5.577c.756.372 1.5.763 2.233 1.173l.091.047c1.361.756 2.333 1.341 3.214 1.341 1.013 0 1.836-.658 2.668-2.13l.062-.113.51.284-2.33 4.123-.001-.004-.001.004a46.066 46.066 0 00-12.968-6.605v-.001l-.072-.152-.323-.718-6.328-14.012-2.33 11.128c-.147.711-.017.958.51 1.122.443.052.887.106 1.327.171l-.144.71a46.507 46.507 0 00-6.75-.492l-.141.002.055-.006-.005-.005c-2.119-.1-2.502-1.38-2.972-3.462l-.273-1.235c-.221-1.043-.584-2.054-2.33-2.054-.17 0-.356.01-.548.03l-1.18.114.64 6.384a45.514 45.514 0 012.03-.253l.097.716a46.165 46.165 0 00-12.72 3.13l-.243-.68a46.028 46.028 0 011.765-.666l-2.759-3.116-3.826 1.578.204 2.56c.026.433.063.914.186 1.208.093.225.396.241.845.055l.149-.06c.302-.152.6-.31.905-.455l.274.67a46.41 46.41 0 00-3.863 2.057l-.318-.652c.17-.1.345-.191.517-.289l.048-.041c.495-.288.731-.328.652-1.485l-1-13.97.378-.153L54.579 23.32a47.112 47.112 0 014.282-1.046L57.548 9.05l-2.013.2-.059-.579.13-.011 6.179-.609c.428-.042.812-.064 1.173-.064 2.577 0 3.936 1.06 4.155 3.242.21 2.109-1.723 3.135-3.308 3.616 1.906.089 2.992.69 3.506 3.048l.526 2.41c.245 1.11.749 1.08 1.038 1.094.036.002.07.008.101.015.891.02 1.775.06 2.651.129.372 0 .588-.126.74-.84L74.912 8.52l-1.9-.395.118-.566 4.348.898 5.232 11.567 1.79-8.55c.155-.748.086-.959-.708-1.123l-1.057-.219.117-.567 4.433.917-.119.565-1-.207a2.333 2.333 0 00-.446-.055c-.38 0-.519.172-.65.805l-2.553 12.189c1.332.439 2.638.934 3.915 1.484l6.587-11.65-1.552-.866zm-45.99 9.231l3.46-1.428-3.942-4.446.481 5.874zm15.87-7.142c2.515-.247 3.542-1.287 3.334-3.369-.213-2.117-1.353-2.99-3.582-2.766l-1.239.12.61 6.102.877-.087zM15.759 68.165a1.28 1.28 0 01-2.43-.812 1.282 1.282 0 011.624-.8 1.27 1.27 0 01.806 1.612zm106.78-.827a1.27 1.27 0 01-.789 1.622 1.283 1.283 0 01-1.633-.783 1.269 1.269 0 01.782-1.619c.66-.23 1.404.116 1.64.78zm-99.533 34.674l4.264-3.288c.756-.582.506-.972.506-.972l1.05 1.343s-.325-.345-1.081.237l-4.264 3.287c-.764.59-.499.981-.499.981l-1.056-1.35s.316.352 1.08-.238zm12.269 3.82c-.085-.052-.428-.192-1.002.387l-4.715 4.764.573-8.386-3.615 3.65c-.565.573-.364.964-.294 1.062l-1.083-1.055c.076.043.436.215 1.016-.374l3.773-3.81c.332-.337.403-.927.11-1.347l.953.929-.527 7.684 3.44-3.476c.574-.58.35-.978.288-1.083l1.083 1.055zm.823 1.976l.748-.783 4.159 2.936-.501.96c.059-.38-.082-.846-.635-1.237l-.877-.62-3.464 4.836c-.568.793-.194 1.083-.194 1.083l-1.396-.985s.385.258.959-.543l3.463-4.837-.877-.62c-.554-.39-1.044-.37-1.385-.19zm3.21 9.68s.424.187.911-.73l2.468-4.638c.463-.87.08-1.132.08-1.132l3.443 1.805-.502.944c.05-.25.035-.706-.726-1.105l-1.323-.693-1.427 2.683 1.636.858c.43.224.746.04.746.04l-.488.917s-.03-.354-.449-.574L42.031 115l-1.427 2.683 1.484.779c.59.31 1.155.255 1.512-.005l-.705.911-3.587-1.878zm12.074-.433c.27-.744.08-1.7-.962-2.072l-.862-.31-2.035 5.589c-.33.904.11 1.085.11 1.085l-1.612-.578s.447.125.773-.77l1.83-5.026c.342-.935-.083-1.12-.083-1.12l2.005.719c1.67.6 1.934 1.73 1.608 2.624-.288.793-1.18 1.417-2.256 1.293-.021-.007-.153-.02-.173-.028l.961 2.892c.472 1.157.702 1.343.702 1.343l-1.185-.425-1.487-4.467.608.218c.981.351 1.786-.224 2.058-.967zm10.941.387c-.1.004-.462.08-.607.878l-1.195 6.569-4.278-7.246-.915 5.034c-.145.787.244.998.356 1.04l-1.492-.267c.089-.005.482-.065.629-.874l.956-5.254c.085-.462-.192-.989-.672-1.174l1.313.235 3.917 6.64.873-4.793c.145-.798-.266-1.003-.377-1.054l1.492.266zm3.688 4.646l-.716 1.687c-.113.267-.17.479-.173.65a.502.502 0 00.313.507l-1.538-.024c.065 0 .367-.068.803-1.046l2.92-6.589 2.675 6.714c.36.903.714 1.026.79 1.038l-1.786-.028c.162-.072.27-.178.275-.391.003-.15-.048-.354-.162-.643l-.722-1.83-2.68-.045zm2.515-.397L67.4 118.82l-1.2 2.833 2.325.04zm3.42-3.105l.01-1.08 5.06-.655.288 1.04c-.215-.317-.639-.564-1.311-.477l-1.069.14.775 5.88c.127.965.598.925.598.925l-1.697.22s.46-.07.33-1.044l-.774-5.881-1.067.138c-.67.086-1.016.433-1.142.794zm9.077 3.849l-1.287-5.208c-.23-.924-.688-.857-.688-.857l1.661-.404s-.45.153-.221 1.076l1.286 5.21c.231.932.7.851.7.851l-1.674.408s.454-.143.223-1.076zm5.446-8.513c1.75-.69 3.883-.197 4.804 2.108.85 2.127-.005 4.188-2.197 5.051-1.751.692-3.883.197-4.804-2.108-.85-2.126.005-4.188 2.197-5.051zm-.094.52c-1.511.595-2.1 2.219-1.361 4.067.734 1.837 2.495 2.708 4.156 2.054 1.51-.596 2.1-2.22 1.361-4.069-.735-1.837-2.495-2.707-4.156-2.052zm11.249-6.42c-.07.07-.287.37.151 1.056l3.604 5.638-8.095-2.453 2.763 4.32c.432.677.862.57.973.526l-1.28.807c.06-.063.309-.372-.135-1.067l-2.883-4.51a1.104 1.104 0 00-1.296-.412l1.127-.709 7.416 2.25-2.63-4.115c-.438-.686-.88-.56-.997-.524l1.282-.807zm5.887.95l.64 1.717c.102.268.207.462.322.588.167.181.355.229.578.156l-1.137 1.026c.047-.042.22-.3-.135-1.306l-2.414-6.782 6.575 3.072c.886.413 1.23.262 1.291.22l-1.32 1.192c.068-.163.076-.313-.069-.472-.1-.11-.279-.222-.562-.358l-1.786-.842-1.983 1.789zm1.558-1.998l-2.8-1.327 1.08 2.878 1.72-1.55zm.248-6.056l1.088-1.31s-.267.389.47.994l4.608 3.774 1.123-1.35c.424-.512.485-1.072.3-1.472l.758.87-2.637 3.173s.27-.376-.536-1.035l-4.108-3.365c-.738-.606-1.066-.28-1.066-.28z" fill="#212527" fill-rule="evenodd"/></svg>