<?xml version="1.0" encoding="UTF-8" standalone="no"?>
<svg
   viewBox="-580 1280 1211504.1 993613.31"
   version="1.1"
   id="svg2"
   width="1211504.1"
   height="993613.31"
   xmlns="http://www.w3.org/2000/svg"
   xmlns:svg="http://www.w3.org/2000/svg">
  <defs
     id="defs2" />
  <path
     fill="#FFFFFF"
     d="m -67660.101,-27410.266 h 47.9 c 15.5,0 28.2,-2.9 37.2,-9.4 9,-6.5 13.5,-17.2 13.5,-29.5 0,-12.3 -4.5,-22.9 -13.5,-29.5 -9,-6.5 -21.3,-9.4 -37.2,-9.4 h -73.7 v 127.7 h 25.8 z m 73.6,-38.8 c 0,6.1 -1.6,8.6 -5.3,11 -4.1,2.5 -11.9,4.1 -23.7,4.1 h -44.6 v -29.9 h 44.6 c 11.9,0 19.6,1.6 23.7,4.1 3.7,1.7 4.9,4.1 5.3,10.7 z m 118.3,91.2 c -14.3,0 -30.3,-2 -43.4,-10.6 -13.1,-8.2 -22.5,-23.3 -22.1,-45.8 v -74.1 h 25.8 v 74.1 c 0.4,22.1 11.9,32.3 39.7,32.7 27.8,-0.8 39.3,-10.6 39.7,-32.7 v -74.1 h 25.8 v 74.1 c 0,22.5 -9,37.6 -22.1,45.8 -13.1,8.6 -29.1,10.6 -43.4,10.6 z m 206.2,-7.3 c 13.1,-4.1 25,-15.1 24.6,-34 0,-15.1 -7.8,-24.1 -15.1,-29.1 6.1,-4.5 11.5,-11.9 11.5,-24.1 0.4,-17.6 -9.8,-27.8 -20.9,-31.9 -11,-4.5 -22.9,-4.1 -29.9,-4.1 h -73.2 v 127.7 h 65.1 c 10.1,0 24.8,0 37.9,-4.5 z m -8.6,-22.5 c -4.9,2 -12.3,2.9 -20.5,2.9 h -48.3 v -30.7 h 50.3 c 9.8,0 16.8,1.6 20.5,4.5 3.7,2.5 5.3,5.7 5.3,11.5 -0.3,6.8 -2.4,9.3 -7.3,11.8 z m -2,-55.3 c -4.5,2.5 -12.3,4.1 -23.3,4.1 h -43.4 v -25.8 h 38.5 c 9.8,0 19.6,0 25.4,2 6.1,2 8.2,3.7 8.2,10.6 0.3,4.6 -1.3,6.7 -5.4,9.1 z m 187,82.3 h -113.8 v -127.7 h 25.8 v 103.5 h 88 z m 24.9,-127.7 h 25.8 v 127.7 h -25.8 z m 198.9,88.4 -2.5,4.5 c -11.9,24.6 -34.8,37.6 -67.1,37.6 h -0.8 c -21.7,0 -39.7,-6.1 -52.4,-18 -12.7,-11.5 -19.6,-28.6 -19.6,-48.7 0,-20.5 6.5,-37.6 19.2,-49.1 12.7,-11.9 30.7,-18 52.8,-18 38.1,0 59.3,19.6 66.3,37.6 l 2,4.5 -22.9,10.6 -2,-4.9 c -6.1,-14.3 -18.4,-23.7 -43.4,-24.1 -31.1,0.8 -45.4,14.7 -45.8,45.4 0.4,25.4 16.8,40.1 47.5,40.5 22.1,0 35.2,-9 43.8,-25 l 2.5,-4.5 z m 29.4,39.3 v -127.7 h 25.8 v 127.7 z m 190.7,-38.5 c 0,10.2 -4.9,21.3 -15.1,29.1 -10.6,7.8 -26.2,12.7 -48.7,12.7 h -1.2 c -42.6,0 -58.1,-21.3 -65.5,-29.1 l -3.7,-4.1 20,-17.2 3.3,3.7 c 4.9,5.3 11,21.7 48.7,22.1 3.3,0 13.5,-0.4 22.1,-2.9 9,-2.9 14.7,-7 14.7,-14.3 0,-4.9 -2.5,-7.4 -10.2,-10.2 -7.4,-2.5 -18.4,-3.7 -29.9,-4.9 -13.1,-1.2 -27.8,-2.5 -39.7,-7.4 -11.9,-4.5 -21.7,-13.9 -21.7,-29.5 0,-13.1 5.7,-23.7 16.8,-30.7 10.6,-7 25.4,-9.8 43.8,-9.8 42.1,-0.4 59.3,22.1 62.6,26.6 l 3.3,4.1 -19.2,15.5 -3.3,-3.7 c -4.9,-5.3 -13.1,-18.4 -43.8,-18.8 -7,0 -16.4,0.8 -23.3,3.3 -7,2.9 -10.6,5.7 -10.6,11.9 0.4,4.9 2,7 9.4,9.4 7,2.5 17.2,3.3 28.6,4.5 13.9,1.2 28.6,2.5 40.9,7.8 11.9,4.5 21.7,15.1 21.7,31.9 z m -928.8,142 h 71.6 v 68.3 h -24.1 v -8.6 c -9,6.1 -22.9,11.5 -42.1,11.5 h -0.4 c -21.7,0 -39.7,-6.1 -52.4,-18 -12.7,-11.9 -19.6,-28.6 -19.6,-48.7 0,-20.5 6.5,-37.6 19.2,-49.1 12.7,-11.9 30.7,-17.6 52.4,-17.6 31.9,0 56.1,15.1 64.6,36 l 1.6,4.5 -22.1,11.9 -2,-5.3 c -8.2,-20.5 -31.9,-23.3 -42.6,-23.3 -30.7,0.8 -44.6,14.7 -45.4,45 0.4,25.4 16.8,40.1 46.6,40.5 17.6,0 35.2,-7.8 40.1,-22.5 h -45.4 z m 239.4,-21.3 c 0,-12.3 -4.5,-22.5 -13.9,-29.1 -9,-6.5 -21.7,-9.4 -37.6,-9.4 h -72.8 v 127.7 h 25.8 v -51.6 h 36.8 l 37.2,51.6 h 31.9 l -39.3,-53.2 c 15.5,-3.3 31.4,-14.3 31.9,-36 z m -25.4,0 c -0.4,6.5 -2,8.6 -6.5,11 -4.9,2 -12.7,3.3 -22.9,3.3 h -43.8 v -28.6 h 43.8 c 10.2,0 18.4,0.8 22.9,3.3 4.5,2.5 6.5,4.5 6.5,11 z m 124.8,-41.3 c -21.7,0 -40.5,6.5 -53.6,18.4 -13.1,11.9 -20.5,29.1 -20.5,49.1 0,22.5 9.8,39.3 23.7,50.3 14.3,10.6 32.3,16 49.9,16 17.6,0 35.6,-4.9 49.9,-16 14.3,-10.6 24.1,-27.8 24.1,-50.3 0,-20 -7.4,-37.2 -20.5,-49.1 -12.5,-11.9 -30.9,-18.4 -53,-18.4 z m 47.9,65 c -0.4,33.6 -23.7,43.8 -47.9,44.6 -24.1,-0.4 -47.5,-11 -47.9,-44.6 0,-24.6 18.4,-40.9 47.9,-41.3 29.4,0.4 47.9,16.8 47.9,41.3 z m 159.9,-62.2 h 25.8 v 74.1 c 0,22.5 -9,37.6 -22.1,45.8 -13.1,8.2 -29.1,10.6 -43.4,10.6 -14.3,0 -30.3,-2 -43.4,-10.6 -13.1,-8.2 -22.5,-23.3 -22.1,-45.8 v -74.1 h 25.8 v 74.1 c 0.4,22.5 11.9,32.3 39.7,32.7 27.8,-0.8 39.3,-10.6 39.7,-32.7 z m 171.5,9.9 c -9,-6.5 -21.3,-9.4 -37.2,-9.4 h -74.1 v 127.7 h 25.8 v -49.5 h 48.3 c 15.5,0 28.2,-2.9 37.2,-9.4 9,-6.5 13.5,-17.2 13.5,-29.5 0,-12.8 -4.5,-23.4 -13.5,-29.9 z m -11.9,29.4 c 0,6.1 -1.6,8.6 -5.3,11 -4.1,2.5 -11.9,4.1 -23.7,4.1 h -44.6 v -30.3 h 44.6 c 11.9,0 20,1.6 23.7,4.1 4.1,2.5 5.3,5 5.3,11.1 z m 76.5,64.3 h 92.1 v 24.1 h -117.8 v -127.7 h 115.8 v 24.1 h -90 v 25 h 75.3 v 24.1 h -75.3 z"
     id="path1"
     style="fill:#3e3e3d;fill-opacity:1" />
  <path
     fill="#bcab78"
     d="m -66823.001,-27553.466 -76.5,-45.4 c 15.1,2 28.6,-4.9 41.3,-13.9 l 23.3,28.6 -14.3,-35.2 c 15.5,-12.3 28.2,-25.4 44.2,-25.8 43.4,-1.2 13.1,50.7 28.6,51.1 17.6,0 36.8,-57.7 -5.7,-83.1 -43.8,-26.6 -82.2,11.9 -113.3,5.3 l 116.2,-52 h -169.8 l -6.1,-11.5 c 30.7,13.9 52.8,0.8 67.1,-13.5 l 48.3,7 -40.1,-15.5 c 9.4,-9.8 17.6,-17.6 27.8,-13.9 14.3,5.3 22.9,18 47.5,18.4 42.1,0.4 72.8,-74.1 17.2,-106.8 4.1,53.2 -20.5,56.1 -63.8,27.8 l 14.7,-24.1 -22.1,19.2 c -41.3,-18.4 -61.4,18 -79,29.9 -17.6,11.9 -33.6,-11.9 -54.4,16.4 31.5,-10.2 47.5,19.6 68.3,0 -8.6,53.6 -39.3,-16.4 -70,10.2 26.6,2 40.5,25.8 61.4,25.8 38.9,0 4.1,-74.9 58.9,-74.9 l -9,-5.7 c 31.1,-2.9 32.7,28.2 79.4,28.6 4.9,7 -12.3,7.8 -24.1,3.7 -2,9.8 63.4,32.3 47.9,-42.1 20.5,11 16,58.1 -3.3,75.7 -3.7,3.3 -7.4,5.3 -9.4,1.6 -5.3,-7.8 8.2,-7.8 12.3,-20 -14.7,12.7 -39.7,11.9 -56.9,-4.1 -17.2,-16 -42.6,-35.2 -53.6,-1.6 -11,33.6 -20,49.1 -40.1,49.1 -27.8,0.4 -57.3,-45.8 -88,-20.5 58.9,5.3 72.8,99 124.4,100.2 40.1,0 49.1,-17.6 75.3,-17.6 26.2,0 53.6,13.9 53.6,48.3 0,20.9 -11,32.7 -11,32.7 0,0 8.2,-16.8 4.1,-38.5 -3.7,-20.5 -21.3,-33.1 -44.6,-33.1 -32.3,0 -58.1,52.8 -94.1,52.8 -72,0 -90.4,-138.7 -165.3,-117.4 55.2,37.2 61.4,97.4 91.2,120.3 30.3,23.3 66.3,13.9 85.9,31.1 8.2,7 11.5,19.2 14.3,32.3 h -7 c -2.5,-6.5 -6.1,-13.1 -11.9,-18 -17.2,-18 -69.1,-10.2 -92.9,-35.6 -23.7,-25.8 -41.3,-102.7 -88,-114.6 40.9,26.2 49.9,93.7 79,126.8 29.1,33.1 67.9,15.5 85.5,32.7 3.3,3.3 5.7,6.1 8.2,9 h -33.6 c -2.9,-0.4 -6.1,-0.8 -9.8,-0.8 -5.3,0 -11,0.4 -16.4,0.8 h -44.6 c -6.1,-2 -11.9,-4.9 -16.8,-10.2 -23.3,-24.6 -20.9,-50.3 -19.2,-80.6 4.5,28.6 9.8,94.1 58.9,86.7 -61.8,-21.3 -25.8,-126.8 -101.1,-153.8 -8.2,-2.9 -5.3,-29.5 15.1,-33.6 -40.9,7.8 -40.5,-7 -11.9,-36.8 -17.6,11.5 -37.2,8.2 -41.3,20.9 0,0 33.6,52.4 33.6,62.6 0,10.2 -22.1,51.6 -24.6,52.8 -8.2,4.5 -35.2,4.5 -41.7,2.5 -7,-2 -15.5,-24.6 -12.3,-31.5 5.3,-11 46.2,-20 47.1,-36 0.4,-12.7 -16.8,-13.9 -16,-7.4 9.8,3.3 14.3,18 -15.1,25 l 6.5,-10.6 c 0,0 -21.7,17.2 -22.9,18 -1.2,0.8 -6.1,1.2 -9.4,0 -3.3,-0.8 -34.4,-16 -29.1,-30.7 0,0 9.4,4.1 33.1,4.1 23.7,0 25.8,-10.2 25.8,-10.2 0,0 -12.7,3.3 -25.4,3.3 -13.1,0 -25.8,-3.3 -25.8,-3.3 -10.2,-2.5 0.8,-15.1 4.1,-15.5 h 24.6 c 1.6,0 3.7,-3.3 0,-3.7 -2.5,0 -18,-0.4 -19.2,-4.5 -2,-6.5 -6.1,-47.9 -6.1,-47.9 0,0 5.3,-12.7 0.8,-17.2 -4.5,-4.1 -6.5,-2 -6.5,-2 10.2,57.3 -33.6,92.9 -58.5,85.9 l -2.9,-0.4 c 5.7,4.1 12.7,8.2 22.1,11 -46.6,9.8 -65.9,-18.4 -73.2,-36 -4.1,2 -4.1,13.1 -3.7,20.5 -9.8,-10.6 -15.5,-27 -6.5,-38.9 -11.9,5.7 -12.3,7.8 -12.3,7.8 0.4,-9.8 17.6,-16.4 26.2,-27.8 8.6,-11.5 7,-29.1 -11.9,-36.4 1.2,17.6 -7.4,29.9 -25.4,35.6 -17.2,5.7 -14.3,-9.8 -30.3,-6.5 26.2,6.1 25,42.1 51.1,56.9 -34.8,-8.2 -40.9,-55.6 -83.5,-51.1 24.6,-34.8 63,-4.9 79,-29.1 -41.3,9.4 -69.6,-25.4 -74.5,-63.8 -6.5,-58.1 -56.1,-29.5 -55.2,-58.1 25,11 80.2,-31.5 96.6,17.2 17.2,50.7 51.6,71.6 82.7,47.9 l -135,-137.1 17.2,57.3 c -35.2,7 -77.7,-13.9 -54.8,-63.4 -33.6,-15.5 -77.7,40.1 -36.8,83.5 18.8,20 65.1,12.7 76.9,53.6 l -43.8,-3.7 45,11.9 13.5,39.7 -105.2,-51.1 64.6,75.3 c -37.6,20 -47.1,-37.2 -95.7,-36 -34,0.8 -72.4,36 -56.5,76.9 51.1,-31.1 67.5,-9 89.2,12.7 l -31.5,16.8 37.2,-11.5 c 13.1,12.3 29.5,22.5 56.1,20.9 44.2,-3.3 83.1,-17.6 92.9,-5.3 7.8,9 -1.2,14.3 -17.2,14.3 h -210.3 l 84.3,45.4 c -8.2,6.1 -31.5,35.2 -47.9,35.2 -16.4,0 -52.8,-25 -62.6,18.8 37.6,-6.5 56.5,75.7 135.4,10.2 l -36.8,61 h -173.5 v 20.9 h 1043 v -21.2 h -179.9 z m -40.9,-247.9 c 19.2,8.2 -40.5,66.7 -58.9,64.6 38.1,-11.4 39.3,-72.8 58.9,-64.6 z m 7.8,172.2 c 13.5,-36 56.1,-51.6 73.7,-20 0.8,1.6 -0.4,2.9 -3.7,-0.4 -22.1,-22.1 -50.3,-1.2 -67.9,21.7 -2.5,3.7 -3.3,1.6 -2.1,-1.3 z m -615.8,-387 c -11,19.2 -9,54.4 35.6,65.1 -74.5,16.7 -72.4,-68 -35.6,-65.1 z m -60.1,229.9 c -34.4,-18.8 -64.6,3.7 -64.6,3.7 10.1,-34 73.6,-36.8 64.6,-3.7 z m 15.1,-13.5 c -5.3,-7 -9.4,-12.7 -15.1,-14.7 -7.4,-2 -15.1,-2 -22.5,-1.6 -8.6,0.4 -16.4,0.8 -18.4,-4.5 -1.6,-3.7 0,-7.4 4.5,-10.6 4.5,-3.3 11.5,-5.7 18.4,-6.1 7.8,-0.4 14.3,1.2 18.8,5.3 4.5,3.7 6.1,4.1 7,3.7 1.2,-0.4 0.8,-3.3 0.8,-4.9 0,-1.2 -0.4,-2.5 0.4,-2 12.3,2 18,9.4 24.6,17.2 10.6,12.7 26.6,31.9 65.9,25 -10.4,35 -66.8,24.3 -84.4,-6.8 z m 31.5,47.9 c -2,-15.1 74.5,-26.6 75.3,-4.5 0.4,18.8 -72.8,21.3 -75.3,4.5 z m 267.2,33.9 c -10.2,3.3 -11.9,19.6 17.6,26.6 -9.4,1.2 -33.1,-2.9 -34,-19.2 -0.4,-12.7 16.8,-13.9 16.4,-7.4 z m -28.7,27.9 c 27.4,1.6 56.5,15.5 56.5,15.5 3.3,7 -4.9,29.5 -12.3,31.5 -6.5,2 -39.7,-1.6 -44.6,-15.5 19.6,5.3 21.3,-2 21.3,-2 0,0 -18,0 -25.4,-12.3 14.3,4.9 20.9,0 20.9,0 0,0 -27.4,-10.6 -28.2,-16.8 h 11.9 v -0.4 z m -89.6,-36.4 c 7.8,9 -42.1,31.5 -67.1,22.9 41.8,0.8 59,-31.9 67.1,-22.9 z m -57.2,33.1 c 28.6,0 45.4,-9.4 52.4,-16.4 -2.9,20.5 -24.6,27.4 -52.4,27.4 -27.8,0 -53.2,-30.3 -74.1,-10.2 36.8,-4.5 42.6,34.8 84.3,21.7 -36,38.9 -62.6,-29.5 -103.9,-9.8 21.2,-50.3 65.4,-12.7 93.7,-12.7 z m -205.5,62.6 c 21.7,-31.9 38.5,11.9 74.1,-12.3 11.9,18.8 -17.2,30.7 -34.4,20 -17.1,-10.6 -30.7,-11 -39.7,-7.7 z m 104.8,22.5 c -16,12.3 -56.1,24.6 -55.6,-1.6 42.1,8.2 51.6,-51.6 88.8,-34 -9.5,2.1 -17.7,23.7 -33.2,35.6 z m -5.7,54.8 123.2,-67.9 c 0,22.5 -3.3,38.9 -8.6,51.1 l -60.6,16.8 z m 120.3,0 h -9 c 6.1,-9 11,-19.6 16.4,-31.9 0.3,7.4 -1.3,20.1 -7.4,31.9 z m 28.2,0 c 5.3,-43.4 -18.4,-108 49.1,-157.9 -9,8.2 -51.1,45 -38.1,145.3 13.1,-21.7 2,-103.9 40.9,-133.4 -27.4,33.6 -12.7,92.5 -32.7,146.1 h -19.2 z m 43,0 h -15.1 c 22.5,-42.1 9.8,-110.1 29.5,-130.9 -13.6,24.1 7.7,83.1 -14.4,130.9 z m 14.3,0 12.3,-19.6 c 6.1,7.8 9.4,14.3 10.6,19.6 z m 69.9,0 h -8.2 c 0.4,-6.1 -0.8,-11.9 -5.3,-17.6 -31.1,-41.3 -32.3,-50.3 -32.3,-50.3 2.9,31.5 22.5,35.6 27.4,67.9 h -13.1 c -4.9,-24.6 -29.5,-34 -18.8,-106 l 0.8,-5.3 c 1.6,65.5 49.5,76.1 49.5,108.4 0.5,0.9 0,2.1 0,2.9 z m 34.8,0 h -13.9 c 5.3,-22.5 -4.1,-29.5 -23.3,-49.9 28.6,19.7 38.9,33.6 37.2,49.9 z m -29.4,-69.1 c -2.5,-0.8 -4.1,-7 -4.1,-8.2 0,-0.4 0.8,-1.6 4.1,-1.6 0,0 24.6,0.8 36.8,0.8 12.7,0 36.4,-0.8 36.8,-0.8 3.3,0 4.1,1.2 4.1,1.6 0,1.2 -1.6,7.8 -4.1,8.2 0,0 -23.3,5.7 -37.2,4.9 -12.7,0.8 -36,-4.9 -36.4,-4.9 z m 48.7,69.1 c 0.4,-10.6 -1.6,-22.9 -9.8,-39.7 14.3,16.8 18.4,28.6 18.8,39.7 z m 31.9,0 h -8.6 c 3.7,-12.7 4.9,-26.6 -6.1,-46.2 15.9,13.9 17.1,29.9 14.7,46.2 z m 17.2,0 h -9.8 c 4.1,-16.4 6.5,-34 -3.7,-54.8 16.3,13.5 15.9,34.4 13.5,54.8 z m 16.7,0 -10.2,-29.9 c 8.2,4.1 13.9,15.1 19.2,29.9 z m 47.1,0 c -6.1,-13.1 -12.7,-22.9 -20,-26.2 5.3,7.8 9,16.8 12.3,26.2 h -10.3 c -14.7,-29.1 -38.9,-50.7 -13.9,-104.3 -25.4,54.8 37.2,88.8 49.1,99.8 1.2,1.2 2.9,2.9 4.1,4.9 h -21.3 z m -90.8,-291.3 c -4.9,7.4 7.4,13.5 20,7 11,-5.7 18.4,-12.7 36,-12.7 11,0 26.6,19.2 35.2,5.3 6.1,8.2 -2,18 -15.1,18 -13.5,0 -19.2,-11 -36,-11 -16.8,0 -20,10.2 -41.7,10.2 -22.1,0 -26.6,-39.7 2.5,-43 -16.9,14.3 -10.8,26.2 -0.9,26.2 z m 180,-203.4 c -9.4,40.1 -38.5,27 -64.2,61.8 -25.7,34.8 11,94.5 -59.7,94.1 59.3,-14.7 21.7,-58.1 50.3,-99.8 16.3,-24.5 58.9,-23.7 73.6,-56.1 z m -163.3,91.3 c 0,0 -7.4,28.2 9,44.2 -34.7,-12.7 -9,-44.2 -9,-44.2 z m 162.5,-69.2 c -9,29.5 -26.2,24.6 -45,52 -21.7,24.1 7,93.3 -52.8,91.7 47.5,-13.9 21.3,-62.6 44.2,-96.6 12.7,-18.8 40.9,-23.7 53.6,-47.1 z m -9.9,159.2 c -7.4,4.9 -27,26.2 -38.9,31.9 0,-13.9 29.5,-60.6 79,-40.5 -5.7,4.9 -26.5,-0.4 -40.1,8.6 z m -35.5,61.8 c -22.1,-7 -36.8,11 -40.5,2.9 -2.1,-10.3 29.4,-10.3 40.5,-2.9 z m 22,-13.5 c -0.8,-69.1 90,-33.1 100.7,-81.4 7.8,50.3 -81.4,47.4 -100.7,81.4 z m -24.5,43 c -34.8,-15.1 -53.2,6.5 -54.8,-3.7 -2.5,-15.2 42.9,-13.5 54.8,3.7 z m -101.9,-256.2 c 23.3,47.9 -59.3,61 -24.1,118.7 -52.4,-43 27,-81.4 24.1,-118.7 z m -44.6,363.8 c 2,-1.2 3.7,-7 4.5,-8.2 9,-6.1 20,-9.4 25,-12.7 -0.8,9.8 -20.5,22.9 -29.5,20.9 z m -83.9,-154.7 c -13.9,-2.9 -29.9,11 -45.8,18.4 15.1,21.7 49.5,23.3 63.4,31.1 3.3,-4.9 13.5,-43.4 -17.6,-49.5 z m -15.9,35.2 c -14.3,-5.3 -8.2,-32.7 10.6,-28.6 -1.2,2 -9.8,18.4 -10.6,28.6 z m 10.6,3.3 c 6.1,-6.5 10.6,-22.9 11.9,-25.4 13.5,10.6 0,29.9 -11.9,25.4 z m -2.8,-52.8 c -15.1,0 -47.9,33.1 -55.6,0.8 0,0 4.9,1.6 11,1.2 5.7,-18.8 36.4,-36.4 55.2,-31.1 -22.1,1.6 -38.9,17.2 -36.4,26.2 3.3,11.9 22.5,-6.5 38.9,-6.1 19.2,0 29.9,19.6 45,1.6 -0.9,38.5 -44.2,7.4 -58.1,7.4 z m 53.6,-204.2 16.4,42.6 c 0,0 -15.1,17.6 -15.1,48.7 0,61 49.9,66.7 46.6,42.1 -35.2,16 -36.8,-34.8 -27,-45.4 0,0 -6.5,26.6 17.2,36.4 -31.5,-52 30.3,-71.6 30.3,-112.9 0,-34.4 -21.3,-45.8 -20.9,-77.3 0.4,-38.1 56.5,-47.9 57.3,-33.6 0.4,10.6 -40.9,11.5 -41.3,51.1 -0.8,36.8 40.5,45.8 39.7,81.4 -0.8,23.3 -42.6,45 -16.4,89.2 l 59.7,-168.2 -46.2,51.1 c -14.7,-18.4 -26.2,-20 -26.2,-52.8 0,-32.8 36.4,-37.6 36.4,-52.8 0,-12.3 -18.4,-13.9 -31.5,-14.7 -20.5,-0.8 -57.3,17.2 -57.3,55.2 0,38.1 25.8,57.3 0,93.3 z m 54,-8.2 c 16.4,51.6 -37.2,65.5 -41.7,99.4 -3.3,-41.3 47.8,-60.9 41.7,-99.4 z m -136.7,300.4 -1.6,-2.9 c -3.7,-6.1 -2,-19.2 -2,-19.2 -8.6,-0.4 -22.1,16.4 -22.1,16.4 0,0 -5.7,-19.6 14.7,-28.2 -1.6,-2.9 -0.4,-6.5 -0.4,-6.5 16.8,17.2 47.1,16.4 55.2,22.1 0,-0.2 -51.2,-9.2 -43.8,18.3 z m -109.7,-258.2 37.6,18 c 1.2,13.1 6.5,26.6 19.6,41.7 14.7,17.2 54.4,22.1 56.1,62.2 12.3,-12.3 2.5,-40.5 -24.1,-56.5 -101.1,-58.9 68.3,-151.8 -40.5,-184.9 94.1,-6.1 54,79 61.4,112.9 10.2,47.1 54,35.6 77.3,65.1 l -25.8,-143.2 -24.1,99.8 c -31.9,-4.9 -20.9,-50.3 -20,-91.2 1.6,-78.2 -132.2,-55.6 -114.2,-11.9 7,16.8 52.4,-20.9 52.8,18.8 0.4,27 -16.8,50.3 -18.4,76.5 z m 12.7,-94.1 c -9,-11 36,-23.7 44.2,4.5 -22.1,-14.8 -39.7,0.4 -44.2,-4.5 z m 169.4,198.8 c 20,-71.6 -133.8,-33.1 -89.2,-117.4 -16.8,83.5 121.5,40.1 89.2,117.4 z m 158,152.6 c 79.8,-27 104.3,105.2 151,104.3 28.6,-0.8 39.3,-19.2 60.1,-23.7 -14.3,9.4 -34.8,34.4 -60.1,34.8 -70.4,1.7 -68.8,-108.8 -151,-115.4 z m -180.5,-172.6 c 0,-3.3 -1.2,-6.1 -3.7,-8.6 -14.7,-14.7 -58.1,-11.5 -78.2,-32.3 -45.8,-45.4 42.1,-84.3 12.3,-149.3 54.8,45 -64.2,126 15.1,153 33.6,11.5 45,15.5 53.2,21.7 5.3,4.1 9,10.6 9,18 0,12.7 -10.2,22.9 -22.9,22.9 -7,0 -13.1,-2.9 -17.2,-7.8 -9,-9.4 -6.1,-26.6 -12.3,-31.5 10.6,-2 16.4,16.4 27,22.9 2,1.2 4.1,2 6.1,2 6.3,0.4 11.6,-4.5 11.6,-11 z m -125.6,33.1 c 8.2,19.2 31.1,26.2 45.4,26.6 -29.8,38.5 -52.8,-9 -45.4,-26.6 z m 203.4,233.6 c 4.1,-2.5 7.8,-7.4 9.8,-10.2 13.1,-4.9 19.6,-7.4 20.5,-9.8 2.4,8.6 -14.8,24.1 -30.3,20 z m 113.3,-169.8 c -9,4.9 -13.5,15.1 -16.8,9.8 -2,-2.8 4.9,-11.4 16.8,-9.8 z m -26.6,17.2 c -16,-7.4 -32.3,-21.3 -45.8,-18.4 -31.5,6.1 -20.9,44.6 -17.6,49.5 13.9,-7.8 48.3,-9.8 63.4,-31.1 z m -30.3,16 c 0,0 -9.4,-26.6 -10.6,-28.6 19.2,-4.2 24.9,23.3 10.6,28.6 z m -22.5,-22.1 c 1.2,2.5 5.3,18.4 11.9,25.4 -11.9,4.5 -25.4,-14.8 -11.9,-25.4 z m 121.5,-86.8 c -13.9,15.5 -13.1,27.8 -34,41.3 27.4,11.9 28.2,-24.6 55.2,-32.3 18.8,-5.3 32.7,17.2 59.3,4.9 26.6,-12.3 17.2,-61.8 30.3,-83.5 13.1,-21.7 48.7,-42.1 74.1,1.6 0,0 -43,-42.1 -63,8.2 13.9,-11.5 34.8,-15.1 34.8,-4.1 -11,3.7 -28.6,9.8 -29.1,49.1 -0.8,45.8 -19.2,55.6 -33.6,65.1 -20.9,13.9 -69.1,13.1 -79.8,44.2 l 167.4,-74.5 h -51.1 c 6.5,-37.6 -7.8,-93.3 62.2,-80.2 8.6,-18.4 -49.5,-78.2 -100.2,-10.2 l -4.9,-17.2 c -10.6,90.5 -58.5,55.3 -87.6,87.6 z m 88.4,-45.4 c 8.6,14.7 -17.2,41.3 -17.2,41.3 6.5,2.5 6.5,12.3 -2,14.7 -15.1,4.5 -27.4,-12.7 -46.6,-7.8 4,-6.9 44.5,-5.2 65.8,-48.2 z m -472.6,83.5 c 0,-29.5 14.7,-46.2 -12.3,-64.2 52.8,11.5 0.8,88.8 71.2,87.6 -15.5,23.2 -58.5,12.2 -58.9,-23.4 z m 337.6,-155.9 v -35.6 l 9.4,31.5 c 21.3,-6.1 48.3,-17.2 47.5,-36.4 -0.8,-19.2 -20.9,-27.4 -21.3,-39.3 -0.4,-17.6 60.1,-7.4 60.1,49.1 0,40.1 -13.9,52 -13.9,52 l 51.1,-26.2 -88.8,115 c 0,0 -27.4,41.7 -45.4,34.4 17.2,-3.3 39.7,-31.5 39.7,-56.5 0,-33.6 26.2,-54 34.4,-64.6 8.6,-11 48.7,-87.2 -22.9,-105.2 46.6,47.5 5.3,69.1 -34,84.3 -37.6,14.3 -26.2,72 -37.6,92.1 -12.3,20.5 -45,27.8 -51.1,27.8 11,-19.2 33.6,-25.4 41.7,-47.5 8.2,-23.3 -3.7,-57.3 31.1,-74.9 z"
     id="path2" />
</svg>
