<svg xmlns="http://www.w3.org/2000/svg" xmlns:xlink="http://www.w3.org/1999/xlink">

    <symbol xmlns="http://www.w3.org/2000/svg" viewBox="0 0 169 115" id="logo-text">
        <path
            fill="#000"
            d="M28.992 89.973c-4.78 0-9.065-.492-13.515-1.97-4.45-1.478-7.91-3.94-10.218-6.896-2.307-2.791-4.12-6.403-4.78-11.657h10.713c.989 5.746 3.79 9.523 6.593 11.329 3.955 2.463 6.922 3.448 12.69 3.448 8.9 0 13.02-5.419 13.02-10.837 0-1.806-.494-3.612-1.648-5.253a10.319 10.319 0 00-4.285-3.612c-1.813-.986-4.285-1.807-7.417-2.463l-8.9-1.806c-5.768-1.15-10.383-3.284-13.679-6.24-3.296-2.955-4.78-6.567-4.78-11.328 0-3.448.99-6.567 3.297-9.359 2.143-2.627 5.274-4.76 9.065-6.239 3.955-1.641 8.075-2.134 12.525-2.134 3.79 0 7.581.493 11.372 1.806a24.457 24.457 0 019.065 5.746c2.472 2.627 4.12 5.583 5.109 9.359H42.836c-.824-4.105-1.978-6.731-5.439-9.03-2.472-1.642-5.604-2.627-10.383-2.627-4.12 0-8.735 1.313-11.372 5.09-.989 1.477-1.648 3.283-1.648 5.582 0 3.94 2.307 6.567 6.098 7.717 1.648.656 3.79 1.149 6.757 1.806l8.735 1.806c6.592 1.313 11.372 3.612 14.668 6.567 3.132 2.955 4.78 7.06 4.78 11.821 0 4.433-1.319 8.21-3.79 11-2.473 2.956-5.604 4.762-9.066 6.24-3.79 1.642-8.075 2.134-13.184 2.134zM92.279 81.6c3.955 0 7.252-.985 10.218-2.956 2.802-1.97 4.944-4.761 6.428-8.373 1.483-3.612 2.307-7.88 2.307-12.806 0-4.926-.824-9.195-2.307-12.807-1.484-3.612-3.626-6.403-6.428-8.373-2.966-1.97-6.263-2.956-10.218-2.956-3.956 0-7.417.986-10.218 2.956-2.802 1.97-4.945 4.761-6.428 8.373-1.483 3.612-2.307 7.881-2.307 12.807 0 4.925.824 9.194 2.307 12.806 1.483 3.612 3.626 6.403 6.428 8.373 2.801 1.97 6.262 2.956 10.218 2.956zm18.459-55.495h11.536v88.824h-11.536V75.032a25.99 25.99 0 01-5.439 7.881c-2.307 2.299-4.78 4.105-7.746 5.254-2.967 1.314-5.933 1.806-9.065 1.806-5.109 0-9.724-1.313-13.844-4.105-4.12-2.79-7.252-6.567-9.559-11.492-2.307-4.926-3.46-10.672-3.46-16.911 0-6.24 1.153-11.986 3.46-16.911 2.308-4.926 5.604-8.702 9.724-11.493 4.12-2.791 8.57-4.105 13.68-4.105 3.79 0 7.086.657 10.053 2.134 2.966 1.642 5.603 3.613 7.581 6.075 1.978 2.463 3.626 5.254 4.615 8.21v-15.27zm34.61 62.719h-11.537V0h11.537v88.824zm23.073-74.047h-11.536V0h11.536v14.777zm0 74.047h-11.536V26.105h11.536v62.719z" />
    </symbol>

</svg>